# xmcd CD database file
#
# Track frame offsets:
#	150
#	12880
#	24362
#	34415
#	45570
#	55637
#	68337
#	83737
#	97555
#	109100
#	128670
#	140895
#	153175
#	165830
#	178290
#
# Disc length: 2479 seconds
#
# Revision: 1
# Processed by: cddbd v1.5.2PL0 Copyright (c) Steve Scherf et al.
# Submitted via: jetAudio 7
#
DISCID=ab09ad0f
DTITLE=Various Artist - Giants Of Country and Western Disc 2
DYEAR=1900
DGENRE=Country
TTITLE0=Little Blossom
TTITLE1=I Can't Change Overnight
TTITLE2=Hey Porter
TTITLE3=Minnesota Bay
TTITLE4=Take My Hand For A While
TTITLE5=Georgia In A Jug
TTITLE6=How Do I Hide From A Memory
TTITLE7=Home Is Where You're Happy
TTITLE8=I've Loved And Lost Again
TTITLE9=Tijuana Dust
TTITLE10=Two Little Orphans
TTITLE11=Catahoula Cur Dog
TTITLE12=Silver Wings
TTITLE13=Fräulein
TTITLE14=I've Got A Happy Heart
EXTD=
EXTT0=
EXTT1=
EXTT2=
EXTT3=
EXTT4=
EXTT5=
EXTT6=
EXTT7=
EXTT8=
EXTT9=
EXTT10=
EXTT11=
EXTT12=
EXTT13=
EXTT14=
PLAYORDER=
